# xmcd
#
# Track frame offsets:
#	150
#	13977
#	33284
#	46348
#	66299
#	79917
#	94645
#	112540
#	127901
#	142950
#	158662
#	172225
#	186846
#	203744
#
# Disc length: 2971 seconds
#
# Revision: 0
# Processed by: cddbd v1.5.1PL2 Copyright (c) Steve Scherf et al.
# Submitted via: dBpowerAMP V4.0
#
DISCID=b20b990e
DTITLE=Darren Busby - You Can't Walk This Road Alone
DYEAR=2003
DGENRE=Country
TTITLE0=You Can't Walk This Road Alone
TTITLE1=Old Soldiers
TTITLE2=This Heart
TTITLE3=When Only Love Will Do
TTITLE4=You Can't Take It With You
TTITLE5=If We Can't Have Forever
TTITLE6=The Tips Of My Fingers
TTITLE7=Loving All Night
TTITLE8=Land Of Enchantment
TTITLE9=Only Heaven Knows
TTITLE10=When The Feeling Goes Away
TTITLE11=Island
TTITLE12=Sad Songs (Say So Much)
TTITLE13=An American Trilogy
EXTD=
EXTT0=
EXTT1=
EXTT2=
EXTT3=
EXTT4=
EXTT5=
EXTT6=
EXTT7=
EXTT8=
EXTT9=
EXTT10=
EXTT11=
EXTT12=
EXTT13=
PLAYORDER=
